<svg width="765.03125px" height="138.8px" xmlns="http://www.w3.org/2000/svg" viewBox="-132.515625 5.599999999999994 765.03125 138.8" style="background: rgba(0, 0, 0, 0);" preserveAspectRatio="xMidYMid"><defs><filter id="editing-extrusion" x="-100%" y="-100%" width="300%" height="300%"><feFlood result="color1" flood-color="#444"></feFlood><feConvolveMatrix order="11,11" divisor="1" kernelMatrix="1 0 0 0 0 0 0 0 0 0 0 0 1 0 0 0 0 0 0 0 0 0 0 0 1 0 0 0 0 0 0 0 0 0 0 0 1 0 0 0 0 0 0 0 0 0 0 0 1 0 0 0 0 0 0 0 0 0 0 0 1 0 0 0 0 0 0 0 0 0 0 0 1 0 0 0 0 0 0 0 0 0 0 0 1 0 0 0 0 0 0 0 0 0 0 0 1 0 0 0 0 0 0 0 0 0 0 0 1 0 0 0 0 0 0 0 0 0 0 0 1" in="SourceAlpha" result="extrude"></feConvolveMatrix><feComposite in="color1" in2="extrude" result="comp-extrude" operator="in"></feComposite><feOffset dx="5.5" dy="5.5" in="comp-extrude" result="offset-extrude"></feOffset><feMerge><feMergeNode in="offset-extrude"></feMergeNode><feMergeNode in="SourceGraphic"></feMergeNode></feMerge></filter></defs><g filter="url(#editing-extrusion)"><g transform="translate(-24.240018129348755, 107.44500160217285)"><path d="M71.87-49.79L71.87-39.30L68.67-39.30L68.67-10.50L71.87-10.50L71.87 0L47.68 0L47.68-10.50L50.75-10.50L50.75-32.90L39.87 0L30.40 0L19.20-32.58L19.20-10.50L22.27-10.50L22.27 0L1.28 0L1.28-10.50L4.48-10.50L4.48-39.30L1.28-39.30L1.28-49.79L30.59-49.79L37.25-29.82L43.65-49.79L71.87-49.79ZM108.80-10.50L111.62-10.50L111.62 0L94.72 0L94.72-4.35L94.72-4.35Q93.31-2.30 90.78-0.70L90.78-0.70L90.78-0.70Q88.26 0.90 84.61 0.90L84.61 0.90L84.61 0.90Q79.81 0.90 77.06-1.66L77.06-1.66L77.06-1.66Q74.30-4.22 74.30-8.90L74.30-8.90L74.30-8.90Q74.30-20.99 94.85-21.31L94.85-21.31L94.85-21.31Q94.66-23.49 93.18-24.29L93.18-24.29L93.18-24.29Q91.71-25.09 88.19-25.09L88.19-25.09L88.19-25.09Q85.31-25.09 82.02-24.48L82.02-24.48L82.02-24.48Q78.72-23.87 75.97-22.85L75.97-22.85L75.97-34.62L75.97-34.62Q79.36-35.46 83.33-35.97L83.33-35.97L83.33-35.97Q87.30-36.48 91.07-36.48L91.07-36.48L91.07-36.48Q100.61-36.48 104.70-33.02L104.70-33.02L104.70-33.02Q108.80-29.57 108.80-22.34L108.80-22.34L108.80-10.50ZM94.72-14.59L94.72-14.98L94.72-14.98Q91.84-14.98 90.27-14.21L90.27-14.21L90.27-14.21Q88.70-13.44 88.70-11.65L88.70-11.65L88.70-11.65Q88.70-10.56 89.38-9.89L89.38-9.89L89.38-9.89Q90.05-9.22 91.26-9.22L91.26-9.22L91.26-9.22Q92.93-9.22 93.82-10.62L93.82-10.62L93.82-10.62Q94.72-12.03 94.72-14.59L94.72-14.59ZM129.47 0.90L129.47 0.90Q122.69 0.90 119.26-2.40L119.26-2.40L119.26-2.40Q115.84-5.70 115.84-13.50L115.84-13.50L115.84-25.09L113.02-25.09L113.02-35.58L113.02-35.58Q115.46-35.58 116.67-36.83L116.67-36.83L116.67-36.83Q117.89-38.08 117.89-40.26L117.89-40.26L117.89-43.14L131.46-43.14L131.46-35.58L140.10-35.58L140.10-25.09L131.46-25.09L131.46-14.59L131.46-14.59Q131.46-12.48 132.38-11.49L132.38-11.49L132.38-11.49Q133.31-10.50 135.17-10.50L135.17-10.50L135.17-10.50Q137.60-10.50 140.48-11.07L140.48-11.07L140.48-1.02L140.48-1.02Q138.69-0.32 135.65 0.29L135.65 0.29L135.65 0.29Q132.61 0.90 129.47 0.90L129.47 0.90ZM158.34 0.90L158.34 0.90Q151.55 0.90 148.13-2.40L148.13-2.40L148.13-2.40Q144.70-5.70 144.70-13.50L144.70-13.50L144.70-25.09L141.89-25.09L141.89-35.58L141.89-35.58Q144.32-35.58 145.54-36.83L145.54-36.83L145.54-36.83Q146.75-38.08 146.75-40.26L146.75-40.26L146.75-43.14L160.32-43.14L160.32-35.58L168.96-35.58L168.96-25.09L160.32-25.09L160.32-14.59L160.32-14.59Q160.32-12.48 161.25-11.49L161.25-11.49L161.25-11.49Q162.18-10.50 164.03-10.50L164.03-10.50L164.03-10.50Q166.46-10.50 169.34-11.07L169.34-11.07L169.34-1.02L169.34-1.02Q167.55-0.32 164.51 0.29L164.51 0.29L164.51 0.29Q161.47 0.90 158.34 0.90L158.34 0.90ZM211.07-10.50L213.89-10.50L213.89 0L193.66 0L193.66-10.50L196.35-10.50L196.35-20.99L196.35-20.99Q196.35-23.10 195.46-24.10L195.46-24.10L195.46-24.10Q194.56-25.09 192.77-25.09L192.77-25.09L192.77-25.09Q188.93-25.09 188.93-20.99L188.93-20.99L188.93-10.50L191.62-10.50L191.62 0L171.39 0L171.39-10.50L174.21-10.50L174.21-39.30L171.39-39.30L171.39-49.79L188.93-49.79L188.93-30.59L188.93-30.59Q191.30-33.54 194.05-35.01L194.05-35.01L194.05-35.01Q196.80-36.48 200.45-36.48L200.45-36.48L200.45-36.48Q205.76-36.48 208.42-33.15L208.42-33.15L208.42-33.15Q211.07-29.82 211.07-24L211.07-24L211.07-10.50ZM232.06-39.10L219.01-39.10L219.01-49.79L232.06-49.79L232.06-39.10ZM236.29 0L215.94 0L215.94-10.50L218.75-10.50L218.75-25.09L215.94-25.09L215.94-35.58L233.47-35.58L233.47-10.50L236.29-10.50L236.29 0ZM272.58-10.50L275.39-10.50L275.39 0L258.50 0L258.50-4.35L258.50-4.35Q257.09-2.30 254.56-0.70L254.56-0.70L254.56-0.70Q252.03 0.90 248.38 0.90L248.38 0.90L248.38 0.90Q243.58 0.90 240.83-1.66L240.83-1.66L240.83-1.66Q238.08-4.22 238.08-8.90L238.08-8.90L238.08-8.90Q238.08-20.99 258.62-21.31L258.62-21.31L258.62-21.31Q258.43-23.49 256.96-24.29L256.96-24.29L256.96-24.29Q255.49-25.09 251.97-25.09L251.97-25.09L251.97-25.09Q249.09-25.09 245.79-24.48L245.79-24.48L245.79-24.48Q242.50-23.87 239.74-22.85L239.74-22.85L239.74-34.62L239.74-34.62Q243.14-35.46 247.10-35.97L247.10-35.97L247.10-35.97Q251.07-36.48 254.85-36.48L254.85-36.48L254.85-36.48Q264.38-36.48 268.48-33.02L268.48-33.02L268.48-33.02Q272.58-29.57 272.58-22.34L272.58-22.34L272.58-10.50ZM258.50-14.59L258.50-14.98L258.50-14.98Q255.62-14.98 254.05-14.21L254.05-14.21L254.05-14.21Q252.48-13.44 252.48-11.65L252.48-11.65L252.48-11.65Q252.48-10.56 253.15-9.89L253.15-9.89L253.15-9.89Q253.82-9.22 255.04-9.22L255.04-9.22L255.04-9.22Q256.70-9.22 257.60-10.62L257.60-10.62L257.60-10.62Q258.50-12.03 258.50-14.59L258.50-14.59ZM292.99 0.90L292.99 0.90Q284.93 0.90 277.44-1.66L277.44-1.66L277.44-11.14L287.81-11.14L287.81-10.50L287.81-10.50Q287.81-7.42 291.71-7.42L291.71-7.42L291.71-7.42Q295.17-7.42 295.17-9.79L295.17-9.79L295.17-9.79Q295.17-11.07 294.18-11.71L294.18-11.71L294.18-11.71Q293.18-12.35 290.69-12.80L290.69-12.80L287.49-13.38L287.49-13.38Q277.44-15.17 277.44-24.77L277.44-24.77L277.44-24.77Q277.44-30.34 281.66-33.41L281.66-33.41L281.66-33.41Q285.89-36.48 293.06-36.48L293.06-36.48L293.06-36.48Q301.06-36.48 306.56-33.79L306.56-33.79L306.56-24.90L296.83-24.90L296.83-25.54L296.83-25.54Q296.83-26.82 295.97-27.49L295.97-27.49L295.97-27.49Q295.10-28.16 293.44-28.16L293.44-28.16L293.44-28.16Q290.24-28.16 290.24-26.11L290.24-26.11L290.24-26.11Q290.24-25.02 291.14-24.45L291.14-24.45L291.14-24.45Q292.03-23.87 294.40-23.36L294.40-23.36L298.05-22.66L298.05-22.66Q303.74-21.57 306.18-18.62L306.18-18.62L306.18-18.62Q308.61-15.68 308.61-11.07L308.61-11.07L308.61-11.07Q308.61-5.25 304.54-2.18L304.54-2.18L304.54-2.18Q300.48 0.90 292.99 0.90L292.99 0.90ZM359.17-10.50L359.17-15.74L371.90-15.74L371.90 0L329.60 0L329.60-9.22L349.31-39.30L342.66-39.30L342.66-34.05L329.92-34.05L329.92-49.79L370.88-49.79L370.88-40.58L351.23-10.50L359.17-10.50ZM408.45-10.50L411.26-10.50L411.26 0L394.37 0L394.37-4.35L394.37-4.35Q392.96-2.30 390.43-0.70L390.43-0.70L390.43-0.70Q387.90 0.90 384.26 0.90L384.26 0.90L384.26 0.90Q379.46 0.90 376.70-1.66L376.70-1.66L376.70-1.66Q373.95-4.22 373.95-8.90L373.95-8.90L373.95-8.90Q373.95-20.99 394.50-21.31L394.50-21.31L394.50-21.31Q394.30-23.49 392.83-24.29L392.83-24.29L392.83-24.29Q391.36-25.09 387.84-25.09L387.84-25.09L387.84-25.09Q384.96-25.09 381.66-24.48L381.66-24.48L381.66-24.48Q378.37-23.87 375.62-22.85L375.62-22.85L375.62-34.62L375.62-34.62Q379.01-35.46 382.98-35.97L382.98-35.97L382.98-35.97Q386.94-36.48 390.72-36.48L390.72-36.48L390.72-36.48Q400.26-36.48 404.35-33.02L404.35-33.02L404.35-33.02Q408.45-29.57 408.45-22.34L408.45-22.34L408.45-10.50ZM394.37-14.59L394.37-14.98L394.37-14.98Q391.49-14.98 389.92-14.21L389.92-14.21L389.92-14.21Q388.35-13.44 388.35-11.65L388.35-11.65L388.35-11.65Q388.35-10.56 389.02-9.89L389.02-9.89L389.02-9.89Q389.70-9.22 390.91-9.22L390.91-9.22L390.91-9.22Q392.58-9.22 393.47-10.62L393.47-10.62L393.47-10.62Q394.37-12.03 394.37-14.59L394.37-14.59ZM429.12-39.10L416.06-39.10L416.06-49.79L429.12-49.79L429.12-39.10ZM415.62 15.10L415.62 15.10Q412.99 15.10 410.21 14.66L410.21 14.66L410.21 14.66Q407.42 14.21 405.50 13.70L405.50 13.70L405.50 3.26L405.50 3.26Q408.51 3.71 410.88 3.71L410.88 3.71L410.88 3.71Q415.81 3.71 415.81-0.90L415.81-0.90L415.81-25.09L411.52-25.09L411.52-35.58L430.53-35.58L430.53-2.18L430.53-2.18Q430.53 6.59 426.82 10.85L426.82 10.85L426.82 10.85Q423.10 15.10 415.62 15.10L415.62 15.10ZM452.48 0.90L452.48 0.90Q443.33 0.90 438.21-3.87L438.21-3.87L438.21-3.87Q433.09-8.64 433.09-17.79L433.09-17.79L433.09-17.79Q433.09-26.94 438.21-31.71L438.21-31.71L438.21-31.71Q443.33-36.48 452.42-36.48L452.42-36.48L452.42-36.48Q456.83-36.48 460.86-35.26L460.86-35.26L460.86-35.26Q464.90-34.05 467.14-32.51L467.14-32.51L467.14-19.84L456.13-19.84L456.13-20.99L456.13-20.99Q456.13-23.10 455.23-24.10L455.23-24.10L455.23-24.10Q454.34-25.09 452.42-25.09L452.42-25.09L452.42-25.09Q448.70-25.09 448.70-20.99L448.70-20.99L448.70-15.49L448.70-15.49Q448.70-10.50 454.40-10.50L454.40-10.50L454.40-10.50Q459.71-10.50 466.75-11.65L466.75-11.65L466.75-1.60L466.75-1.60Q464.58-0.64 460.64 0.13L460.64 0.13L460.64 0.13Q456.70 0.90 452.48 0.90L452.48 0.90ZM488.38 0.90L488.38 0.90Q479.30 0.90 474.18-3.87L474.18-3.87L474.18-3.87Q469.06-8.64 469.06-17.79L469.06-17.79L469.06-17.79Q469.06-26.94 474.18-31.71L474.18-31.71L474.18-31.71Q479.30-36.48 488.38-36.48L488.38-36.48L488.38-36.48Q497.41-36.48 501.41-31.78L501.41-31.78L501.41-31.78Q505.41-27.07 505.41-20.10L505.41-20.10L505.41-15.49L484.67-15.49L484.67-15.10L484.67-15.10Q484.67-12.74 486.08-11.62L486.08-11.62L486.08-11.62Q487.49-10.50 490.75-10.50L490.75-10.50L490.75-10.50Q494.66-10.50 498.18-11.07L498.18-11.07L498.18-11.07Q501.70-11.65 504.32-12.54L504.32-12.54L504.32-2.30L504.32-2.30Q502.08-1.09 497.76-0.10L497.76-0.10L497.76-0.10Q493.44 0.90 488.38 0.90L488.38 0.90ZM484.67-22.53L492.10-22.53L492.10-23.30L492.10-23.30Q492.10-25.47 491.17-26.43L491.17-26.43L491.17-26.43Q490.24-27.39 488.38-27.39L488.38-27.39L488.38-27.39Q486.53-27.39 485.60-26.40L485.60-26.40L485.60-26.40Q484.67-25.41 484.67-23.30L484.67-23.30L484.67-22.53ZM536.64 0L517.57 0L509.50-25.09L506.82-25.09L506.82-35.58L526.59-35.58L526.59-25.09L523.90-25.09L527.30-12.42L527.94-12.42L531.33-25.09L528.64-25.09L528.64-35.58L547.20-35.58L547.20-25.09L544.51-25.09L536.64 0Z" fill="#ccc"></path></g></g><style>text {
  font-size: 64px;
  font-family: Arial Black;
  dominant-baseline: central;
  text-anchor: middle;
}</style></svg>